<svg width="1554" height="1288" xmlns="http://www.w3.org/2000/svg" xmlns:xlink="http://www.w3.org/1999/xlink" xml:space="preserve" overflow="hidden"><defs><clipPath id="clip0"><rect x="893" y="545" width="1554" height="1288"/></clipPath></defs><g clip-path="url(#clip0)" transform="translate(-893 -545)"><path d="M2.29167-7.29746e-07 2.29202 1110.42-2.29131 1110.42-2.29167 7.29746e-07ZM13.7504 1105.83 0.000360892 1133.33-13.7496 1105.83Z" fill="#000000" fill-rule="nonzero" fill-opacity="1" transform="matrix(1 0 0 -1 1100.5 1733.83)"/><path d="M1100.5 1728.21 2376.8 1728.21 2376.8 1732.79 1100.5 1732.79ZM2372.21 1716.75 2399.71 1730.5 2372.21 1744.25Z" fill="#000000" fill-rule="nonzero" fill-opacity="1"/><rect x="1442.5" y="1288.5" width="49.0001" height="50.0002" stroke="#000000" stroke-width="4.58333" stroke-linecap="butt" stroke-linejoin="miter" stroke-miterlimit="8" stroke-opacity="1" fill="#FFFFFF" fill-opacity="1"/><text fill="#000000" fill-opacity="1" font-family="Cambria Math,Cambria Math_MSFontService,sans-serif" font-style="normal" font-variant="normal" font-weight="400" font-stretch="normal" font-size="83" text-anchor="start" direction="ltr" writing-mode="lr-tb" unicode-bidi="normal" text-decoration="none" transform="translate(2380.59 1810)">z<tspan fill="#000000" fill-opacity="1" font-family="Cambria Math,Cambria Math_MSFontService,sans-serif" font-style="normal" font-variant="normal" font-weight="400" font-stretch="normal" font-size="83" text-anchor="start" direction="ltr" writing-mode="lr-tb" unicode-bidi="normal" text-decoration="none" x="-1457.74" y="-1186">𝑡</tspan><tspan fill="#000000" fill-opacity="1" font-family="Cambria Math,Cambria Math_MSFontService,sans-serif" font-style="normal" font-variant="normal" font-weight="400" font-stretch="normal" font-size="61" text-anchor="start" direction="ltr" writing-mode="lr-tb" unicode-bidi="normal" text-decoration="none" x="-1426.29" y="-1169">𝑒𝑥𝑝</tspan></text><path d="M1467.5 1683.5 1467.5 1733.5" stroke="#000000" stroke-width="4.58333" stroke-linecap="butt" stroke-linejoin="miter" stroke-miterlimit="8" stroke-opacity="1" fill="none" fill-rule="evenodd"/><path d="M1838.5 1680.5 1838.5 1730.5" stroke="#000000" stroke-width="4.58333" stroke-linecap="butt" stroke-linejoin="miter" stroke-miterlimit="8" stroke-opacity="1" fill="none" fill-rule="evenodd"/><text fill="#000000" fill-opacity="1" font-family="Cambria Math,Cambria Math_MSFontService,sans-serif" font-style="normal" font-variant="normal" font-weight="400" font-stretch="normal" font-size="55" text-anchor="start" direction="ltr" writing-mode="lr-tb" unicode-bidi="normal" text-decoration="none" transform="translate(2150.08 1492)">𝑚<tspan fill="#000000" fill-opacity="1" font-family="Cambria Math,Cambria Math_MSFontService,sans-serif" font-style="normal" font-variant="normal" font-weight="400" font-stretch="normal" font-size="40" text-anchor="start" direction="ltr" writing-mode="lr-tb" unicode-bidi="normal" text-decoration="none" x="43.0833" y="12">𝐽</tspan><tspan fill="#000000" fill-opacity="1" font-family="Cambria Math,Cambria Math_MSFontService,sans-serif" font-style="normal" font-variant="normal" font-weight="400" font-stretch="normal" font-size="55" text-anchor="start" direction="ltr" writing-mode="lr-tb" unicode-bidi="normal" text-decoration="none" x="81.0103" y="0">=</tspan><tspan fill="#000000" fill-opacity="1" font-family="Cambria Math,Cambria Math_MSFontService,sans-serif" font-style="normal" font-variant="normal" font-weight="400" font-stretch="normal" font-size="55" text-anchor="start" direction="ltr" writing-mode="lr-tb" unicode-bidi="normal" text-decoration="none" x="137.546" y="0">22</tspan><tspan fill="#000000" fill-opacity="1" font-family="Cambria Math,Cambria Math_MSFontService,sans-serif" font-style="normal" font-variant="normal" font-weight="400" font-stretch="normal" font-size="55" text-anchor="start" direction="ltr" writing-mode="lr-tb" unicode-bidi="normal" text-decoration="none" x="-16.6833" y="71">SNR</tspan><tspan fill="#000000" fill-opacity="1" font-family="Cambria Math,Cambria Math_MSFontService,sans-serif" font-style="normal" font-variant="normal" font-weight="400" font-stretch="normal" font-size="55" text-anchor="start" direction="ltr" writing-mode="lr-tb" unicode-bidi="normal" text-decoration="none" x="97.7166" y="71">=</tspan><tspan fill="#000000" fill-opacity="1" font-family="Cambria Math,Cambria Math_MSFontService,sans-serif" font-style="normal" font-variant="normal" font-weight="400" font-stretch="normal" font-size="55" text-anchor="start" direction="ltr" writing-mode="lr-tb" unicode-bidi="normal" text-decoration="none" x="154.252" y="71">10</tspan></text><rect x="1814.5" y="1143.5" width="48.9998" height="49.9999" stroke="#000000" stroke-width="4.58333" stroke-linecap="butt" stroke-linejoin="miter" stroke-miterlimit="8" stroke-opacity="1" fill="#FFFFFF" fill-opacity="1"/><path d="M1.14583-2.37429e-06 1.14585 9.16666-1.14581 9.16667-1.14583 2.37429e-06ZM1.14587 16.0417 1.14589 25.2083-1.14578 25.2083-1.1458 16.0417ZM1.1459 32.0833 1.14592 41.25-1.14575 41.25-1.14577 32.0833ZM1.14593 48.125 1.14595 57.2917-1.14571 57.2917-1.14573 48.125ZM1.14597 64.1667 1.14599 73.3333-1.14568 73.3333-1.1457 64.1667ZM1.146 80.2083 1.14602 89.375-1.14565 89.375-1.14567 80.2083ZM1.14603 96.25 1.14605 105.417-1.14561 105.417-1.14563 96.25ZM1.14607 112.292 1.14609 121.458-1.14558 121.458-1.1456 112.292ZM1.1461 128.333 1.14612 137.5-1.14555 137.5-1.14557 128.333ZM1.14613 144.375 1.14615 151.25-1.14552 151.25-1.14553 144.375ZM13.7503 146.667 0.000360892 174.167-13.7497 146.667Z" fill="#000000" fill-rule="nonzero" fill-opacity="1" transform="matrix(1 0 0 -1 1467 1287.17)"/><rect x="1440.5" y="1058.5" width="49.9999" height="50.0002" stroke="#4472C4" stroke-width="4.58333" stroke-linecap="butt" stroke-linejoin="miter" stroke-miterlimit="8" stroke-opacity="1" fill="#FFFFFF" fill-opacity="1"/><path d="M1.14583-2.37429e-06 1.14585 9.16666-1.14581 9.16667-1.14583 2.37429e-06ZM1.14587 16.0417 1.14589 25.2083-1.14578 25.2083-1.1458 16.0417ZM1.1459 32.0833 1.14592 41.25-1.14575 41.25-1.14577 32.0833ZM1.14593 48.125 1.14595 57.2917-1.14571 57.2917-1.14573 48.125ZM1.14597 64.1667 1.14599 73.3333-1.14568 73.3333-1.1457 64.1667ZM1.146 80.2083 1.14602 89.375-1.14565 89.375-1.14567 80.2083ZM1.14603 96.25 1.14605 105.417-1.14561 105.417-1.14563 96.25ZM1.14607 112.292 1.14609 121.458-1.14558 121.458-1.1456 112.292ZM1.1461 128.333 1.14612 137.5-1.14555 137.5-1.14557 128.333ZM1.14613 144.375 1.14615 151.25-1.14552 151.25-1.14553 144.375ZM13.7503 146.667 0.000360892 174.167-13.7497 146.667Z" fill="#000000" fill-rule="nonzero" fill-opacity="1" transform="matrix(1 0 0 -1 1838 1140.17)"/><rect x="1812.5" y="911.5" width="48.9998" height="49.9998" stroke="#4472C4" stroke-width="4.58333" stroke-linecap="butt" stroke-linejoin="miter" stroke-miterlimit="8" stroke-opacity="1" fill="#FFFFFF" fill-opacity="1"/><text fill="#4472C4" fill-opacity="1" font-family="DengXian,DengXian_MSFontService,sans-serif" font-style="normal" font-variant="normal" font-weight="400" font-stretch="normal" font-size="55" text-anchor="start" direction="ltr" writing-mode="lr-tb" unicode-bidi="normal" text-decoration="none" transform="matrix(1 0 0 1 1536.04 638)">we can scale to </text><text fill="#4472C4" fill-opacity="1" font-family="Cambria Math,Cambria Math_MSFontService,sans-serif" font-style="normal" font-variant="normal" font-weight="400" font-stretch="normal" font-size="55" text-anchor="start" direction="ltr" writing-mode="lr-tb" unicode-bidi="normal" text-decoration="none" transform="translate(1908.43 638)">𝑚<tspan fill="#4472C4" fill-opacity="1" font-family="Cambria Math,Cambria Math_MSFontService,sans-serif" font-style="normal" font-variant="normal" font-weight="400" font-stretch="normal" font-size="40" text-anchor="start" direction="ltr" writing-mode="lr-tb" unicode-bidi="normal" text-decoration="none" x="43.0834" y="11">𝐽</tspan><tspan fill="#4472C4" fill-opacity="1" font-family="Cambria Math,Cambria Math_MSFontService,sans-serif" font-style="normal" font-variant="normal" font-weight="400" font-stretch="normal" font-size="55" text-anchor="start" direction="ltr" writing-mode="lr-tb" unicode-bidi="normal" text-decoration="none" x="81.0104" y="0">=</tspan><tspan fill="#4472C4" fill-opacity="1" font-family="Cambria Math,Cambria Math_MSFontService,sans-serif" font-style="normal" font-variant="normal" font-weight="400" font-stretch="normal" font-size="55" text-anchor="start" direction="ltr" writing-mode="lr-tb" unicode-bidi="normal" text-decoration="none" x="137.546" y="0">23</tspan><tspan fill="#4472C4" fill-opacity="1" font-family="Cambria Math,Cambria Math_MSFontService,sans-serif" font-style="normal" font-variant="normal" font-weight="400" font-stretch="normal" font-size="55" text-anchor="start" direction="ltr" writing-mode="lr-tb" unicode-bidi="normal" text-decoration="none" x="198.275" y="0"> </tspan>(<tspan fill="#4472C4" fill-opacity="1" font-family="Cambria Math,Cambria Math_MSFontService,sans-serif" font-style="normal" font-variant="normal" font-weight="400" font-stretch="normal" font-size="55" text-anchor="start" direction="ltr" writing-mode="lr-tb" unicode-bidi="normal" text-decoration="none" x="233.223" y="0">SNR</tspan><tspan fill="#4472C4" fill-opacity="1" font-family="Cambria Math,Cambria Math_MSFontService,sans-serif" font-style="normal" font-variant="normal" font-weight="400" font-stretch="normal" font-size="55" text-anchor="start" direction="ltr" writing-mode="lr-tb" unicode-bidi="normal" text-decoration="none" x="347.623" y="0">=</tspan><tspan fill="#4472C4" fill-opacity="1" font-family="Cambria Math,Cambria Math_MSFontService,sans-serif" font-style="normal" font-variant="normal" font-weight="400" font-stretch="normal" font-size="55" text-anchor="start" direction="ltr" writing-mode="lr-tb" unicode-bidi="normal" text-decoration="none" x="404.158" y="0">10</tspan><tspan fill="#4472C4" fill-opacity="1" font-family="Cambria Math,Cambria Math_MSFontService,sans-serif" font-style="normal" font-variant="normal" font-weight="400" font-stretch="normal" font-size="55" text-anchor="start" direction="ltr" writing-mode="lr-tb" unicode-bidi="normal" text-decoration="none" x="464.887" y="0">)</tspan></text><text fill="#4472C4" fill-opacity="1" font-family="DengXian,DengXian_MSFontService,sans-serif" font-style="normal" font-variant="normal" font-weight="400" font-stretch="normal" font-size="55" text-anchor="start" direction="ltr" writing-mode="lr-tb" unicode-bidi="normal" text-decoration="none" transform="matrix(1 0 0 1 1952.23 708)">with CCD equation </text></g></svg>